# xmcd CD database file
#
# Track frame offsets:
#	150
#	3920
#	22442
#	49644
#	60877
#	80669
#	108839
#	138266
#	160460
#	169557
#	236069
#	253312
#
# Disc length: 3627 seconds
#
# Revision: 1
# Processed by: cddbd v1.5.1PL2 Copyright (c) Steve Scherf et al.
# Submitted via: CDex 1.51
#
DISCID=980e290c
DTITLE=Speak Up - 177
DYEAR=2003
DGENRE=Data
TTITLE0=Introduction
TTITLE1=City Lights
TTITLE2=The Shannon
TTITLE3=Emily Watson
TTITLE4=Literary Boom
TTITLE5=Williamburg
TTITLE6=Phobia
TTITLE7=Ulster Scots
TTITLE8=Patrick's Pilgrims
TTITLE9=Precious
TTITLE10=Marian Keyes
TTITLE11=Song and Lyrics (Side by Travis)
EXTD=YEAR: 2003
EXTT0=
EXTT1=
EXTT2=
EXTT3=
EXTT4=
EXTT5=
EXTT6=
EXTT7=
EXTT8=
EXTT9=
EXTT10=
EXTT11=
PLAYORDER=
